<?xml version="1.0" standalone="no"?>
<!DOCTYPE svg PUBLIC "-//W3C//DTD SVG 20010904//EN"
 "http://www.w3.org/TR/2001/REC-SVG-20010904/DTD/svg10.dtd">
<svg version="1.0" xmlns="http://www.w3.org/2000/svg"
 width="900.000000pt" height="800.000000pt" viewBox="0 0 900.000000 800.000000"
 preserveAspectRatio="xMidYMid meet">

<g transform="translate(0.000000,800.000000) scale(0.100000,-0.100000)"
fill="#000000" stroke="none">
<path d="M4360 7990 c-19 -5 -87 -13 -150 -19 -344 -32 -694 -212 -918 -472
-108 -125 -137 -173 -138 -234 -1 -42 -8 -62 -46 -120 -187 -288 -237 -631
-141 -965 21 -74 78 -204 114 -263 l30 -49 -62 -66 c-78 -83 -120 -170 -127
-261 -6 -83 18 -183 56 -231 36 -45 137 -97 207 -105 30 -4 55 -9 55 -11 0 -3
-11 -26 -24 -52 -41 -81 -65 -170 -101 -367 -45 -243 -66 -328 -126 -497 -58
-167 -79 -262 -79 -367 0 -128 45 -227 128 -285 l41 -28 -15 -41 c-32 -88 -92
-305 -104 -375 -11 -62 -19 -79 -50 -110 -66 -66 -130 -292 -130 -458 0 -81 3
-97 31 -152 43 -87 135 -168 265 -234 l104 -53 0 -121 c0 -205 -31 -336 -127
-536 l-56 -116 -53 -7 c-72 -9 -166 -57 -209 -108 -73 -85 -124 -232 -109
-313 l6 -31 -96 -7 c-107 -7 -249 -45 -316 -83 -67 -38 -136 -116 -161 -181
-32 -81 -32 -233 -1 -313 56 -142 189 -225 428 -265 142 -25 461 -25 609 0
196 32 382 99 467 166 20 17 39 30 43 30 3 0 29 -19 58 -43 96 -78 199 -106
414 -110 82 -2 95 0 113 19 l22 21 53 -29 c126 -68 280 -102 510 -113 210 -11
349 16 453 85 l53 36 114 -38 c272 -91 599 -130 906 -110 331 23 472 79 540
217 29 60 33 78 37 177 9 220 -48 342 -193 414 -65 32 -86 37 -167 42 -62 3
-121 -1 -179 -12 -47 -9 -90 -16 -96 -16 -5 0 -13 29 -16 66 -20 213 -218 369
-444 351 l-63 -5 -30 97 c-60 194 -83 341 -96 633 l-7 146 39 25 c147 93 207
251 172 452 -17 102 -58 202 -102 248 -22 24 -26 37 -26 90 0 43 -13 106 -40
202 -86 297 -118 563 -121 1016 l-1 177 39 53 c118 160 217 347 239 450 16 76
7 203 -20 293 -15 49 -15 49 13 75 78 73 113 252 75 382 -36 122 -134 228
-248 269 -16 6 -26 15 -23 23 50 117 86 212 97 255 6 28 15 52 20 52 4 0 56
-18 116 -41 450 -169 917 -183 1092 -34 176 151 -41 456 -490 690 -223 116
-533 232 -794 295 l-131 32 -28 82 c-36 107 -113 269 -159 331 -150 207 -385
350 -679 414 -51 11 -109 27 -129 36 -40 16 -82 18 -138 5z m124 -40 c14 -5
32 -20 41 -34 31 -46 -17 -86 -104 -86 -102 0 -139 90 -51 123 25 9 87 8 114
-3z m-201 -29 c-3 -11 -35 -42 -72 -69 -36 -28 -98 -83 -137 -123 -163 -171
-262 -361 -315 -609 l-24 -110 -30 6 c-16 3 -90 26 -163 50 -235 78 -352 146
-352 203 0 81 211 314 395 436 195 130 479 230 662 234 36 1 40 -1 36 -18z
m371 -17 c283 -71 512 -222 638 -419 52 -82 132 -266 155 -359 15 -61 15 -67
-1 -92 -10 -14 -42 -36 -71 -49 -58 -26 -200 -63 -275 -72 -43 -5 -48 -4 -53
18 -4 13 -7 47 -7 75 0 131 -54 332 -127 479 -64 128 -121 205 -240 322 -56
57 -103 105 -103 108 0 8 18 6 84 -11z m-338 -80 c60 -47 168 -45 224 3 l32
26 97 -99 c53 -54 116 -128 139 -164 114 -173 178 -373 197 -612 l6 -76 -53
-6 c-204 -21 -552 -12 -768 20 -104 15 -399 72 -411 80 -11 6 18 144 50 243
78 234 209 427 389 569 30 23 56 42 59 42 2 0 20 -12 39 -26z m-990 -715 c245
-117 707 -226 1085 -255 84 -6 87 -7 125 -47 51 -53 157 -130 274 -201 120
-72 509 -264 701 -346 l147 -62 -14 -60 c-8 -32 -30 -97 -49 -144 -134 -325
-410 -568 -779 -689 -282 -92 -624 -90 -915 5 -424 138 -765 466 -890 855 -40
126 -55 221 -54 360 2 222 63 421 188 610 l37 56 32 -22 c17 -11 68 -38 112
-60z m2294 -59 c231 -56 534 -167 741 -272 467 -234 697 -545 492 -665 -97
-57 -151 -67 -358 -67 -206 0 -283 11 -505 75 -430 124 -1263 536 -1417 701
l-22 23 177 2 c456 5 772 90 772 208 0 17 5 22 18 19 9 -2 55 -13 102 -24z
m-2447 -1274 c20 -28 77 -91 125 -139 194 -194 412 -318 679 -387 81 -21 128
-40 164 -65 28 -19 59 -35 68 -36 9 0 -13 -9 -50 -18 -36 -10 -73 -22 -84 -28
-15 -9 -31 -2 -83 34 -86 59 -199 115 -341 170 -64 24 -152 59 -195 76 -98 39
-109 43 -72 21 16 -9 98 -45 184 -81 85 -35 191 -83 236 -105 68 -34 105 -57
210 -130 5 -3 -15 -29 -46 -57 -127 -116 -169 -292 -109 -452 43 -112 148
-212 261 -247 84 -26 267 -22 342 7 164 64 269 212 271 381 1 100 -25 178 -84
256 l-46 62 116 35 c64 20 172 48 241 62 69 15 161 38 205 52 84 26 226 90
260 117 11 9 -16 -2 -60 -24 -105 -53 -238 -94 -405 -125 -74 -14 -191 -41
-260 -61 l-125 -35 -68 35 -68 34 34 11 c19 6 56 26 83 43 31 19 81 38 134 50
185 40 375 123 522 228 102 73 236 209 299 302 l45 67 59 -24 c70 -28 147
-104 186 -181 21 -43 24 -62 24 -164 0 -106 -2 -120 -28 -172 -42 -85 -61 -94
-308 -134 -116 -19 -256 -45 -311 -60 -95 -23 -228 -76 -228 -89 0 -3 17 3 38
14 89 45 213 72 489 106 114 14 215 28 224 31 12 3 20 -10 33 -58 27 -98 32
-213 11 -283 -33 -114 -146 -309 -289 -497 -30 -39 -119 -179 -198 -311 -175
-294 -224 -362 -364 -502 -82 -83 -127 -119 -180 -147 -126 -66 -240 -66 -379
0 -174 84 -326 240 -590 611 -61 85 -134 179 -163 210 -49 52 -52 58 -42 86
19 53 60 106 95 121 105 44 257 -13 533 -198 168 -112 372 -240 372 -232 0 2
-42 36 -92 75 -89 69 -92 72 -55 66 20 -3 49 -15 64 -26 14 -12 33 -21 41 -21
9 0 45 -12 80 -26 45 -18 75 -24 96 -20 36 8 76 43 76 68 0 12 7 18 21 18 48
0 89 50 89 110 0 16 5 30 10 30 18 0 50 64 50 100 1 29 2 32 11 17 5 -9 14
-36 18 -60 l9 -42 1 49 c1 56 -24 106 -64 124 l-25 11 26 38 c14 21 45 80 69
131 58 122 105 199 184 297 l64 80 -72 -70 c-77 -75 -145 -167 -206 -280 -82
-152 -106 -185 -128 -185 -30 0 -81 -33 -108 -69 -13 -17 -29 -31 -36 -31 -22
0 -65 -32 -83 -62 -9 -16 -37 -39 -61 -51 -28 -14 -51 -35 -63 -58 l-20 -36
-69 5 c-67 5 -73 7 -176 79 -220 155 -350 214 -481 217 -81 1 -122 -20 -167
-88 -32 -47 -33 -47 -33 -19 0 49 29 130 97 276 35 76 63 140 61 142 -2 2 -41
-69 -86 -158 -82 -159 -112 -240 -112 -304 0 -32 -2 -33 -39 -33 -23 0 -48 -8
-62 -19 l-24 -19 41 10 c23 6 49 8 59 4 17 -6 16 -10 -11 -39 -70 -77 -80 -90
-59 -79 11 5 31 22 45 37 14 15 37 33 51 40 44 23 74 -6 237 -229 l102 -141
-54 -50 c-217 -201 -568 -242 -725 -84 -111 111 -114 274 -12 570 67 191 84
258 126 489 40 220 64 309 106 392 l29 58 88 0 c156 -1 287 -28 358 -76 28
-19 34 -21 21 -7 -51 57 -180 93 -421 118 -222 23 -292 52 -339 138 -19 36
-22 58 -22 147 0 98 2 109 30 159 29 52 120 162 134 161 3 -1 23 -25 44 -54z
m1206 -577 c134 -1 135 -1 101 -17 -25 -12 -63 -17 -130 -17 -81 0 -101 3
-135 23 l-40 23 34 -5 c18 -4 95 -6 170 -7z m25 -138 c134 -66 208 -186 209
-338 1 -74 -2 -88 -36 -156 -41 -83 -98 -141 -173 -177 -263 -123 -553 77
-532 368 11 156 127 293 282 333 17 5 66 7 108 5 62 -2 89 -9 142 -35z m194
-86 c133 -145 132 -354 -3 -503 -24 -26 -58 -56 -76 -67 -30 -17 -28 -12 18
34 155 157 160 399 12 565 -25 28 -35 44 -23 38 12 -6 44 -36 72 -67z m272
-602 c24 -31 20 -66 -10 -97 -19 -20 -20 -20 -42 1 -13 11 -38 28 -55 39 -40
22 -41 36 -7 63 38 30 87 28 114 -6z m-123 -93 c79 -45 97 -100 47 -139 -28
-22 -39 -20 -67 15 -9 13 -42 35 -72 50 -30 14 -55 29 -55 33 1 14 37 51 60
60 34 13 29 14 87 -19z m728 -221 c11 -464 34 -641 120 -939 45 -155 51 -204
32 -271 -34 -114 -152 -182 -376 -218 -61 -10 -67 -9 -95 13 -134 103 -235
275 -344 588 l-41 116 40 28 c57 39 232 225 291 308 27 39 99 154 160 256 115
193 201 330 205 326 2 -1 5 -94 8 -207z m-847 117 c26 -13 58 -36 71 -50 21
-22 23 -29 13 -51 -18 -39 -50 -40 -149 -6 -78 27 -88 33 -85 53 4 31 51 78
79 78 13 0 45 -11 71 -24z m-665 -555 l79 -93 -74 7 c-40 4 -117 13 -170 21
-54 8 -115 14 -136 14 -62 0 -85 -35 -166 -250 -26 -69 -65 -162 -87 -207 -41
-87 -144 -246 -177 -276 -20 -18 -22 -18 -80 22 -107 72 -162 159 -162 253 0
62 32 198 86 361 30 89 39 107 53 102 49 -19 126 -27 220 -23 162 8 286 60
431 181 l55 46 25 -32 c14 -18 60 -74 103 -126z m-88 -112 l180 -22 55 -47
c30 -25 66 -54 80 -64 24 -17 23 -17 -65 -11 -49 3 -148 13 -219 22 l-129 17
-22 -26 c-12 -14 -50 -93 -84 -174 -86 -206 -183 -369 -260 -438 -21 -19 -22
-19 -86 9 -36 15 -65 29 -65 30 0 2 24 36 54 76 70 93 156 259 211 407 80 218
105 259 148 248 12 -2 103 -15 202 -27z m160 -173 c83 -8 175 -17 205 -19 30
-2 84 -17 120 -32 46 -20 88 -30 142 -33 l77 -4 35 -107 c74 -224 148 -369
242 -471 l56 -60 -273 0 c-558 1 -904 32 -1152 105 l-58 17 41 44 c81 88 152
213 240 424 74 177 63 163 123 156 29 -3 120 -12 202 -20z m749 -143 c83 -231
207 -456 296 -537 36 -32 37 -35 17 -40 -12 -3 -46 -6 -75 -6 -48 0 -56 4 -98
42 -66 61 -127 150 -183 269 -46 97 -129 326 -120 332 10 7 105 45 114 46 6 1
28 -47 49 -106z m-1824 -156 c0 -48 114 -181 198 -232 l48 -29 -28 -135 c-38
-186 -34 -201 11 -46 54 182 43 168 106 140 123 -55 397 -125 485 -125 l33 0
-5 -187 -6 -188 18 125 c10 69 21 151 25 183 l6 57 37 -6 c58 -8 311 -20 487
-23 87 -1 160 -3 161 -4 1 -1 -4 -58 -12 -127 -7 -69 -13 -150 -12 -180 l1
-55 8 65 c4 36 18 116 30 178 l22 112 171 1 c94 0 180 2 191 4 11 1 72 6 136
9 63 3 136 9 160 12 l45 6 27 -123 c15 -68 31 -146 36 -174 14 -82 12 -8 -4
120 -8 66 -17 134 -20 151 -5 31 -5 31 61 48 131 32 233 93 269 160 11 20 23
36 27 36 14 0 68 -119 83 -182 21 -91 19 -193 -6 -274 -18 -57 -30 -77 -80
-125 -94 -93 -217 -140 -449 -171 -123 -17 -938 -16 -1175 1 -546 39 -895 131
-1086 285 -126 102 -162 198 -135 365 20 127 61 267 92 314 23 35 44 42 44 14z
m-157 -2163 c26 -10 59 -28 74 -40 l27 -21 -80 -18 c-212 -46 -344 -178 -379
-379 l-12 -71 -32 3 c-64 5 -233 74 -305 125 -27 19 -28 23 -23 82 12 158 121
272 303 319 90 23 109 24 249 21 98 -2 142 -7 178 -21z m207 -20 c0 -8 -19
-13 -24 -6 -3 5 1 9 9 9 8 0 15 -2 15 -3z m-43 -19 c0 -8 -4 -12 -9 -9 -5 3
-6 10 -3 15 9 13 12 11 12 -6z m115 -13 c7 -7 20 -12 30 -12 10 0 18 -5 18
-11 0 -6 7 -8 16 -5 8 3 13 2 10 -3 -3 -4 10 -17 29 -27 19 -10 35 -23 35 -27
0 -5 7 -6 16 -3 9 3 12 2 9 -4 -7 -12 54 -67 70 -62 5 2 7 0 3 -3 -10 -11 11
-47 23 -40 5 4 8 3 7 -2 -4 -12 23 -73 31 -69 4 3 7 -3 8 -12 1 -25 9 -52 28
-96 9 -21 15 -40 13 -41 -2 -2 -39 -13 -83 -24 -292 -76 -604 -97 -841 -56
-27 5 -31 9 -27 33 38 243 143 353 385 402 103 21 89 24 167 -45 l35 -30 -19
30 c-33 53 -43 76 -40 93 2 9 4 20 4 23 2 10 61 3 73 -9z m73 9 c3 -5 2 -12
-3 -15 -5 -3 -9 1 -9 9 0 17 3 19 12 6z m3502 -40 c61 -27 126 -93 154 -156
20 -45 37 -150 35 -215 -1 -35 -2 -35 -91 -69 -83 -30 -278 -81 -316 -81 -14
0 -17 16 -21 94 -4 76 -11 106 -32 150 -50 102 -131 162 -265 196 -53 14 -47
19 60 55 130 44 196 55 314 52 89 -3 120 -7 162 -26z m-730 -7 c-3 -3 -12 -4
-19 -1 -8 3 -5 6 6 6 11 1 17 -2 13 -5z m77 -53 c-2 -3 -12 3 -22 13 -16 17
-16 18 5 5 12 -7 20 -15 17 -18z m-106 10 c44 -2 18 -55 -43 -89 -34 -19 5
-14 70 8 70 24 133 25 206 4 171 -50 249 -153 249 -330 l0 -72 -107 -7 c-60
-4 -178 -5 -263 -2 -193 7 -478 52 -505 80 -7 7 -6 8 1 4 10 -6 41 59 36 76
-1 4 2 7 6 7 13 0 33 50 26 62 -4 6 -3 8 3 5 13 -8 36 41 27 55 -4 6 -2 8 3 5
6 -4 22 11 37 31 14 21 40 51 56 67 16 15 27 33 23 38 -3 6 -1 7 6 3 6 -4 24
2 40 13 16 12 34 21 41 21 6 0 8 4 5 10 -3 6 1 7 9 4 9 -3 16 -2 16 4 0 6 8 9
18 7 9 -2 27 -4 40 -4z m-2593 -21 c10 -11 16 -20 13 -20 -3 0 -13 9 -23 20
-10 11 -16 20 -13 20 3 0 13 -9 23 -20z m2652 -5 c0 -8 -4 -12 -9 -9 -5 3 -6
10 -3 15 9 13 12 11 12 -6z m-2516 -182 c13 -16 12 -17 -3 -4 -10 7 -18 15
-18 17 0 8 8 3 21 -13z m14 -72 c3 -5 2 -12 -3 -15 -5 -3 -9 1 -9 9 0 17 3 19
12 6z m42 -33 c-3 -8 -6 -5 -6 6 -1 11 2 17 5 13 3 -3 4 -12 1 -19z m2014 -1
c-6 -8 -7 -18 -3 -22 4 -5 1 -5 -6 -1 -10 6 -10 11 -1 22 6 8 14 14 16 14 3 0
0 -6 -6 -13z m-21 -41 c0 -2 -8 -10 -17 -17 -16 -13 -17 -12 -4 4 13 16 21 21
21 13z"/>
<path d="M4345 6610 c-25 -6 -26 -8 -7 -9 22 -1 22 -2 7 -31 -49 -94 30 -209
113 -166 45 23 67 81 52 137 -19 68 -75 92 -165 69z"/>
<path d="M3680 6599 c-22 -8 -21 -8 7 -4 l33 4 -20 -37 c-22 -41 -25 -68 -11
-105 31 -81 128 -91 166 -17 28 54 11 136 -34 160 -23 12 -106 12 -141 -1z"/>
<path d="M4834 6021 c4 -6 13 -11 20 -11 8 0 24 -8 36 -18 l22 -18 -53 -49
c-30 -26 -79 -60 -109 -74 -51 -24 -65 -26 -185 -26 -112 1 -149 5 -270 34
-219 53 -330 48 -480 -19 -27 -13 -70 -28 -95 -35 -26 -7 -45 -18 -45 -26 0
-23 63 -13 138 21 157 71 244 76 474 25 325 -71 455 -55 596 74 l57 53 20 -23
c26 -32 27 -5 0 38 -22 37 -41 48 -94 58 -28 6 -37 5 -32 -4z"/>
<path d="M3290 5456 c0 -3 9 -10 20 -16 11 -6 20 -8 20 -6 0 3 -9 10 -20 16
-11 6 -20 8 -20 6z"/>
<path d="M5489 5353 c-13 -16 -12 -17 4 -4 9 7 17 15 17 17 0 8 -8 3 -21 -13z"/>
<path d="M4130 5026 c0 -25 -4 -46 -9 -46 -19 0 -72 -53 -91 -91 -12 -22 -20
-58 -20 -85 0 -39 5 -51 34 -80 19 -19 44 -34 55 -34 27 0 28 -5 34 -107 6
-96 2 -99 -61 -52 -35 26 -43 28 -48 15 -9 -23 13 -46 71 -72 38 -18 52 -31
61 -56 14 -44 40 -44 36 0 -2 30 0 32 32 32 19 0 42 3 51 6 11 5 18 0 22 -15
8 -33 39 -22 35 12 -2 21 5 34 29 54 84 71 73 210 -19 238 l-32 9 0 99 0 99
28 -5 c61 -12 66 -12 70 5 3 14 -7 21 -42 30 -40 11 -46 16 -46 39 0 15 -6 29
-14 32 -19 7 -26 -1 -26 -30 0 -21 -4 -23 -54 -23 -54 0 -55 0 -58 32 -2 22
-9 34 -20 36 -15 3 -18 -4 -18 -42z m146 -93 c-2 -16 -5 -62 -5 -104 l-1 -77
-44 -11 c-25 -6 -50 -11 -56 -11 -11 0 -13 127 -2 198 4 32 5 32 58 32 54 0
55 0 50 -27z m-150 -60 c-3 -38 -6 -85 -6 -105 0 -44 -18 -50 -50 -18 -27 27
-27 92 1 136 17 29 43 52 58 54 2 0 1 -30 -3 -67z m145 -185 c0 -13 2 -32 4
-42 2 -11 5 -46 6 -78 3 -68 -5 -78 -63 -78 -41 0 -38 -7 -52 141 l-6 55 43
11 c63 15 67 15 68 -9z m88 -4 c26 -34 27 -80 1 -121 -24 -41 -40 -42 -40 -4
0 15 -3 56 -6 90 -6 51 -4 61 9 61 8 0 25 -12 36 -26z"/>
<path d="M3141 2444 c0 -11 3 -14 6 -6 3 7 2 16 -1 19 -3 4 -6 -2 -5 -13z"/>
</g>
</svg>
